o 
v 0 15 15
v 2.9263548851013184 15 14.711779594421387
v 5.740251541137695 15 13.858193397521973
v 8.333553314208984 15 12.472043991088867
v 10.60660171508789 15 10.60660171508789
v 12.472043991088867 15 8.333553314208984
v 13.858193397521973 15 5.740251541137695
v 14.711779594421387 15 2.9263548851013184
v 15 15 9.184850467946473e-16
v 14.711779594421387 15 -2.9263548851013184
v 13.858193397521973 15 -5.740251541137695
v 12.472043991088867 15 -8.333553314208984
v 10.60660171508789 15 -10.60660171508789
v 8.333553314208984 15 -12.472043991088867
v 5.740251541137695 15 -13.858193397521973
v 2.9263548851013184 15 -14.711779594421387
v 1.8369700935892946e-15 15 -15
v -2.9263548851013184 15 -14.711779594421387
v -5.740251541137695 15 -13.858193397521973
v -8.333553314208984 15 -12.472043991088867
v -10.60660171508789 15 -10.60660171508789
v -12.472043991088867 15 -8.333553314208984
v -13.858193397521973 15 -5.740251541137695
v -14.711779594421387 15 -2.9263548851013184
v -15 15 -2.7554553521421787e-15
v -14.711779594421387 15 2.9263548851013184
v -13.858193397521973 15 5.740251541137695
v -12.472043991088867 15 8.333553314208984
v -10.60660171508789 15 10.60660171508789
v -8.333553314208984 15 12.472043991088867
v -5.740251541137695 15 13.858193397521973
v -2.9263548851013184 15 14.711779594421387
v -3.673940187178589e-15 15 15
v 0 -15 15
v 2.9263548851013184 -15 14.711779594421387
v 5.740251541137695 -15 13.858193397521973
v 8.333553314208984 -15 12.472043991088867
v 10.60660171508789 -15 10.60660171508789
v 12.472043991088867 -15 8.333553314208984
v 13.858193397521973 -15 5.740251541137695
v 14.711779594421387 -15 2.9263548851013184
v 15 -15 9.184850467946473e-16
v 14.711779594421387 -15 -2.9263548851013184
v 13.858193397521973 -15 -5.740251541137695
v 12.472043991088867 -15 -8.333553314208984
v 10.60660171508789 -15 -10.60660171508789
v 8.333553314208984 -15 -12.472043991088867
v 5.740251541137695 -15 -13.858193397521973
v 2.9263548851013184 -15 -14.711779594421387
v 1.8369700935892946e-15 -15 -15
v -2.9263548851013184 -15 -14.711779594421387
v -5.740251541137695 -15 -13.858193397521973
v -8.333553314208984 -15 -12.472043991088867
v -10.60660171508789 -15 -10.60660171508789
v -12.472043991088867 -15 -8.333553314208984
v -13.858193397521973 -15 -5.740251541137695
v -14.711779594421387 -15 -2.9263548851013184
v -15 -15 -2.7554553521421787e-15
v -14.711779594421387 -15 2.9263548851013184
v -13.858193397521973 -15 5.740251541137695
v -12.472043991088867 -15 8.333553314208984
v -10.60660171508789 -15 10.60660171508789
v -8.333553314208984 -15 12.472043991088867
v -5.740251541137695 -15 13.858193397521973
v -2.9263548851013184 -15 14.711779594421387
v -3.673940187178589e-15 -15 15
v 0 15 0
v 0 15 0
v 0 15 0
v 0 15 0
v 0 15 0
v 0 15 0
v 0 15 0
v 0 15 0
v 0 15 0
v 0 15 0
v 0 15 0
v 0 15 0
v 0 15 0
v 0 15 0
v 0 15 0
v 0 15 0
v 0 15 0
v 0 15 0
v 0 15 0
v 0 15 0
v 0 15 0
v 0 15 0
v 0 15 0
v 0 15 0
v 0 15 0
v 0 15 0
v 0 15 0
v 0 15 0
v 0 15 0
v 0 15 0
v 0 15 0
v 0 15 0
v 0 15 15
v 2.9263548851013184 15 14.711779594421387
v 5.740251541137695 15 13.858193397521973
v 8.333553314208984 15 12.472043991088867
v 10.60660171508789 15 10.60660171508789
v 12.472043991088867 15 8.333553314208984
v 13.858193397521973 15 5.740251541137695
v 14.711779594421387 15 2.9263548851013184
v 15 15 9.184850467946473e-16
v 14.711779594421387 15 -2.9263548851013184
v 13.858193397521973 15 -5.740251541137695
v 12.472043991088867 15 -8.333553314208984
v 10.60660171508789 15 -10.60660171508789
v 8.333553314208984 15 -12.472043991088867
v 5.740251541137695 15 -13.858193397521973
v 2.9263548851013184 15 -14.711779594421387
v 1.8369700935892946e-15 15 -15
v -2.9263548851013184 15 -14.711779594421387
v -5.740251541137695 15 -13.858193397521973
v -8.333553314208984 15 -12.472043991088867
v -10.60660171508789 15 -10.60660171508789
v -12.472043991088867 15 -8.333553314208984
v -13.858193397521973 15 -5.740251541137695
v -14.711779594421387 15 -2.9263548851013184
v -15 15 -2.7554553521421787e-15
v -14.711779594421387 15 2.9263548851013184
v -13.858193397521973 15 5.740251541137695
v -12.472043991088867 15 8.333553314208984
v -10.60660171508789 15 10.60660171508789
v -8.333553314208984 15 12.472043991088867
v -5.740251541137695 15 13.858193397521973
v -2.9263548851013184 15 14.711779594421387
v -3.673940187178589e-15 15 15
v 0 -15 0
v 0 -15 0
v 0 -15 0
v 0 -15 0
v 0 -15 0
v 0 -15 0
v 0 -15 0
v 0 -15 0
v 0 -15 0
v 0 -15 0
v 0 -15 0
v 0 -15 0
v 0 -15 0
v 0 -15 0
v 0 -15 0
v 0 -15 0
v 0 -15 0
v 0 -15 0
v 0 -15 0
v 0 -15 0
v 0 -15 0
v 0 -15 0
v 0 -15 0
v 0 -15 0
v 0 -15 0
v 0 -15 0
v 0 -15 0
v 0 -15 0
v 0 -15 0
v 0 -15 0
v 0 -15 0
v 0 -15 0
v 0 -15 15
v 2.9263548851013184 -15 14.711779594421387
v 5.740251541137695 -15 13.858193397521973
v 8.333553314208984 -15 12.472043991088867
v 10.60660171508789 -15 10.60660171508789
v 12.472043991088867 -15 8.333553314208984
v 13.858193397521973 -15 5.740251541137695
v 14.711779594421387 -15 2.9263548851013184
v 15 -15 9.184850467946473e-16
v 14.711779594421387 -15 -2.9263548851013184
v 13.858193397521973 -15 -5.740251541137695
v 12.472043991088867 -15 -8.333553314208984
v 10.60660171508789 -15 -10.60660171508789
v 8.333553314208984 -15 -12.472043991088867
v 5.740251541137695 -15 -13.858193397521973
v 2.9263548851013184 -15 -14.711779594421387
v 1.8369700935892946e-15 -15 -15
v -2.9263548851013184 -15 -14.711779594421387
v -5.740251541137695 -15 -13.858193397521973
v -8.333553314208984 -15 -12.472043991088867
v -10.60660171508789 -15 -10.60660171508789
v -12.472043991088867 -15 -8.333553314208984
v -13.858193397521973 -15 -5.740251541137695
v -14.711779594421387 -15 -2.9263548851013184
v -15 -15 -2.7554553521421787e-15
v -14.711779594421387 -15 2.9263548851013184
v -13.858193397521973 -15 5.740251541137695
v -12.472043991088867 -15 8.333553314208984
v -10.60660171508789 -15 10.60660171508789
v -8.333553314208984 -15 12.472043991088867
v -5.740251541137695 -15 13.858193397521973
v -2.9263548851013184 -15 14.711779594421387
v -3.673940187178589e-15 -15 15
vt 0 1
vt 0.03125 1
vt 0.0625 1
vt 0.09375 1
vt 0.125 1
vt 0.15625 1
vt 0.1875 1
vt 0.21875 1
vt 0.25 1
vt 0.28125 1
vt 0.3125 1
vt 0.34375 1
vt 0.375 1
vt 0.40625 1
vt 0.4375 1
vt 0.46875 1
vt 0.5 1
vt 0.53125 1
vt 0.5625 1
vt 0.59375 1
vt 0.625 1
vt 0.65625 1
vt 0.6875 1
vt 0.71875 1
vt 0.75 1
vt 0.78125 1
vt 0.8125 1
vt 0.84375 1
vt 0.875 1
vt 0.90625 1
vt 0.9375 1
vt 0.96875 1
vt 1 1
vt 0 0
vt 0.03125 0
vt 0.0625 0
vt 0.09375 0
vt 0.125 0
vt 0.15625 0
vt 0.1875 0
vt 0.21875 0
vt 0.25 0
vt 0.28125 0
vt 0.3125 0
vt 0.34375 0
vt 0.375 0
vt 0.40625 0
vt 0.4375 0
vt 0.46875 0
vt 0.5 0
vt 0.53125 0
vt 0.5625 0
vt 0.59375 0
vt 0.625 0
vt 0.65625 0
vt 0.6875 0
vt 0.71875 0
vt 0.75 0
vt 0.78125 0
vt 0.8125 0
vt 0.84375 0
vt 0.875 0
vt 0.90625 0
vt 0.9375 0
vt 0.96875 0
vt 1 0
vt 0.5 0.5
vt 0.5 0.5
vt 0.5 0.5
vt 0.5 0.5
vt 0.5 0.5
vt 0.5 0.5
vt 0.5 0.5
vt 0.5 0.5
vt 0.5 0.5
vt 0.5 0.5
vt 0.5 0.5
vt 0.5 0.5
vt 0.5 0.5
vt 0.5 0.5
vt 0.5 0.5
vt 0.5 0.5
vt 0.5 0.5
vt 0.5 0.5
vt 0.5 0.5
vt 0.5 0.5
vt 0.5 0.5
vt 0.5 0.5
vt 0.5 0.5
vt 0.5 0.5
vt 0.5 0.5
vt 0.5 0.5
vt 0.5 0.5
vt 0.5 0.5
vt 0.5 0.5
vt 0.5 0.5
vt 0.5 0.5
vt 0.5 0.5
vt 1 0.5
vt 0.9903926253318787 0.5975451469421387
vt 0.9619397521018982 0.6913416981697083
vt 0.9157348275184631 0.7777851223945618
vt 0.8535534143447876 0.8535534143447876
vt 0.7777851223945618 0.9157348275184631
vt 0.6913416981697083 0.9619397521018982
vt 0.5975451469421387 0.9903926253318787
vt 0.5 1
vt 0.40245485305786133 0.9903926253318787
vt 0.30865827202796936 0.9619397521018982
vt 0.22221487760543823 0.9157348275184631
vt 0.1464466154575348 0.8535534143447876
vt 0.08426519483327866 0.7777851223945618
vt 0.03806023299694061 0.6913416981697083
vt 0.009607359766960144 0.5975451469421387
vt 0 0.5
vt 0.009607359766960144 0.40245485305786133
vt 0.03806023299694061 0.30865827202796936
vt 0.08426519483327866 0.22221487760543823
vt 0.1464466154575348 0.1464466154575348
vt 0.22221487760543823 0.08426519483327866
vt 0.30865827202796936 0.03806023299694061
vt 0.40245485305786133 0.009607359766960144
vt 0.5 0
vt 0.5975451469421387 0.009607359766960144
vt 0.6913416981697083 0.03806023299694061
vt 0.7777851223945618 0.08426519483327866
vt 0.8535534143447876 0.1464466154575348
vt 0.9157348275184631 0.22221487760543823
vt 0.9619397521018982 0.30865827202796936
vt 0.9903926253318787 0.40245485305786133
vt 1 0.5
vt 0.5 0.5
vt 0.5 0.5
vt 0.5 0.5
vt 0.5 0.5
vt 0.5 0.5
vt 0.5 0.5
vt 0.5 0.5
vt 0.5 0.5
vt 0.5 0.5
vt 0.5 0.5
vt 0.5 0.5
vt 0.5 0.5
vt 0.5 0.5
vt 0.5 0.5
vt 0.5 0.5
vt 0.5 0.5
vt 0.5 0.5
vt 0.5 0.5
vt 0.5 0.5
vt 0.5 0.5
vt 0.5 0.5
vt 0.5 0.5
vt 0.5 0.5
vt 0.5 0.5
vt 0.5 0.5
vt 0.5 0.5
vt 0.5 0.5
vt 0.5 0.5
vt 0.5 0.5
vt 0.5 0.5
vt 0.5 0.5
vt 0.5 0.5
vt 1 0.5
vt 0.9903926253318787 0.40245485305786133
vt 0.9619397521018982 0.30865827202796936
vt 0.9157348275184631 0.22221487760543823
vt 0.8535534143447876 0.1464466154575348
vt 0.7777851223945618 0.08426519483327866
vt 0.6913416981697083 0.03806023299694061
vt 0.5975451469421387 0.009607359766960144
vt 0.5 0
vt 0.40245485305786133 0.009607359766960144
vt 0.30865827202796936 0.03806023299694061
vt 0.22221487760543823 0.08426519483327866
vt 0.1464466154575348 0.1464466154575348
vt 0.08426519483327866 0.22221487760543823
vt 0.03806023299694061 0.30865827202796936
vt 0.009607359766960144 0.40245485305786133
vt 0 0.5
vt 0.009607359766960144 0.5975451469421387
vt 0.03806023299694061 0.6913416981697083
vt 0.08426519483327866 0.7777851223945618
vt 0.1464466154575348 0.8535534143447876
vt 0.22221487760543823 0.9157348275184631
vt 0.30865827202796936 0.9619397521018982
vt 0.40245485305786133 0.9903926253318787
vt 0.5 1
vt 0.5975451469421387 0.9903926253318787
vt 0.6913416981697083 0.9619397521018982
vt 0.7777851223945618 0.9157348275184631
vt 0.8535534143447876 0.8535534143447876
vt 0.9157348275184631 0.7777851223945618
vt 0.9619397521018982 0.6913416981697083
vt 0.9903926253318787 0.5975451469421387
vt 1 0.5
vn 0 0 1
vn 0.19509032931342324 0 0.9807852789517083
vn 0.3826834370613369 0 0.9238795305660377
vn 0.555570248949409 0 0.8314696016585884
vn 0.7071067811865476 0 0.7071067811865476
vn 0.8314696016585884 0 0.555570248949409
vn 0.9238795305660377 0 0.3826834370613369
vn 0.9807852789517083 0 0.19509032931342324
vn 1 0 6.123234262925839e-17
vn 0.9807852789517083 0 -0.19509032931342324
vn 0.9238795305660377 0 -0.3826834370613369
vn 0.8314696016585884 0 -0.555570248949409
vn 0.7071067811865476 0 -0.7071067811865476
vn 0.555570248949409 0 -0.8314696016585884
vn 0.3826834370613369 0 -0.9238795305660377
vn 0.19509032931342324 0 -0.9807852789517083
vn 1.2246468525851679e-16 0 -1
vn -0.19509032931342324 0 -0.9807852789517083
vn -0.3826834370613369 0 -0.9238795305660377
vn -0.555570248949409 0 -0.8314696016585884
vn -0.7071067811865476 0 -0.7071067811865476
vn -0.8314696016585884 0 -0.555570248949409
vn -0.9238795305660377 0 -0.3826834370613369
vn -0.9807852789517083 0 -0.19509032931342324
vn -1 0 -1.8369701465288538e-16
vn -0.9807852789517083 0 0.19509032931342324
vn -0.9238795305660377 0 0.3826834370613369
vn -0.8314696016585884 0 0.555570248949409
vn -0.7071067811865476 0 0.7071067811865476
vn -0.555570248949409 0 0.8314696016585884
vn -0.3826834370613369 0 0.9238795305660377
vn -0.19509032931342324 0 0.9807852789517083
vn -2.4492937051703357e-16 0 1
vn 0 0 1
vn 0.19509032931342324 0 0.9807852789517083
vn 0.3826834370613369 0 0.9238795305660377
vn 0.555570248949409 0 0.8314696016585884
vn 0.7071067811865476 0 0.7071067811865476
vn 0.8314696016585884 0 0.555570248949409
vn 0.9238795305660377 0 0.3826834370613369
vn 0.9807852789517083 0 0.19509032931342324
vn 1 0 6.123234262925839e-17
vn 0.9807852789517083 0 -0.19509032931342324
vn 0.9238795305660377 0 -0.3826834370613369
vn 0.8314696016585884 0 -0.555570248949409
vn 0.7071067811865476 0 -0.7071067811865476
vn 0.555570248949409 0 -0.8314696016585884
vn 0.3826834370613369 0 -0.9238795305660377
vn 0.19509032931342324 0 -0.9807852789517083
vn 1.2246468525851679e-16 0 -1
vn -0.19509032931342324 0 -0.9807852789517083
vn -0.3826834370613369 0 -0.9238795305660377
vn -0.555570248949409 0 -0.8314696016585884
vn -0.7071067811865476 0 -0.7071067811865476
vn -0.8314696016585884 0 -0.555570248949409
vn -0.9238795305660377 0 -0.3826834370613369
vn -0.9807852789517083 0 -0.19509032931342324
vn -1 0 -1.8369701465288538e-16
vn -0.9807852789517083 0 0.19509032931342324
vn -0.9238795305660377 0 0.3826834370613369
vn -0.8314696016585884 0 0.555570248949409
vn -0.7071067811865476 0 0.7071067811865476
vn -0.555570248949409 0 0.8314696016585884
vn -0.3826834370613369 0 0.9238795305660377
vn -0.19509032931342324 0 0.9807852789517083
vn -2.4492937051703357e-16 0 1
vn 0 1 0
vn 0 1 0
vn 0 1 0
vn 0 1 0
vn 0 1 0
vn 0 1 0
vn 0 1 0
vn 0 1 0
vn 0 1 0
vn 0 1 0
vn 0 1 0
vn 0 1 0
vn 0 1 0
vn 0 1 0
vn 0 1 0
vn 0 1 0
vn 0 1 0
vn 0 1 0
vn 0 1 0
vn 0 1 0
vn 0 1 0
vn 0 1 0
vn 0 1 0
vn 0 1 0
vn 0 1 0
vn 0 1 0
vn 0 1 0
vn 0 1 0
vn 0 1 0
vn 0 1 0
vn 0 1 0
vn 0 1 0
vn 0 1 0
vn 0 1 0
vn 0 1 0
vn 0 1 0
vn 0 1 0
vn 0 1 0
vn 0 1 0
vn 0 1 0
vn 0 1 0
vn 0 1 0
vn 0 1 0
vn 0 1 0
vn 0 1 0
vn 0 1 0
vn 0 1 0
vn 0 1 0
vn 0 1 0
vn 0 1 0
vn 0 1 0
vn 0 1 0
vn 0 1 0
vn 0 1 0
vn 0 1 0
vn 0 1 0
vn 0 1 0
vn 0 1 0
vn 0 1 0
vn 0 1 0
vn 0 1 0
vn 0 1 0
vn 0 1 0
vn 0 1 0
vn 0 1 0
vn 0 -1 0
vn 0 -1 0
vn 0 -1 0
vn 0 -1 0
vn 0 -1 0
vn 0 -1 0
vn 0 -1 0
vn 0 -1 0
vn 0 -1 0
vn 0 -1 0
vn 0 -1 0
vn 0 -1 0
vn 0 -1 0
vn 0 -1 0
vn 0 -1 0
vn 0 -1 0
vn 0 -1 0
vn 0 -1 0
vn 0 -1 0
vn 0 -1 0
vn 0 -1 0
vn 0 -1 0
vn 0 -1 0
vn 0 -1 0
vn 0 -1 0
vn 0 -1 0
vn 0 -1 0
vn 0 -1 0
vn 0 -1 0
vn 0 -1 0
vn 0 -1 0
vn 0 -1 0
vn 0 -1 0
vn 0 -1 0
vn 0 -1 0
vn 0 -1 0
vn 0 -1 0
vn 0 -1 0
vn 0 -1 0
vn 0 -1 0
vn 0 -1 0
vn 0 -1 0
vn 0 -1 0
vn 0 -1 0
vn 0 -1 0
vn 0 -1 0
vn 0 -1 0
vn 0 -1 0
vn 0 -1 0
vn 0 -1 0
vn 0 -1 0
vn 0 -1 0
vn 0 -1 0
vn 0 -1 0
vn 0 -1 0
vn 0 -1 0
vn 0 -1 0
vn 0 -1 0
vn 0 -1 0
vn 0 -1 0
vn 0 -1 0
vn 0 -1 0
vn 0 -1 0
vn 0 -1 0
vn 0 -1 0
f 1/1/1 34/34/34 2/2/2
f 34/34/34 35/35/35 2/2/2
f 2/2/2 35/35/35 3/3/3
f 35/35/35 36/36/36 3/3/3
f 3/3/3 36/36/36 4/4/4
f 36/36/36 37/37/37 4/4/4
f 4/4/4 37/37/37 5/5/5
f 37/37/37 38/38/38 5/5/5
f 5/5/5 38/38/38 6/6/6
f 38/38/38 39/39/39 6/6/6
f 6/6/6 39/39/39 7/7/7
f 39/39/39 40/40/40 7/7/7
f 7/7/7 40/40/40 8/8/8
f 40/40/40 41/41/41 8/8/8
f 8/8/8 41/41/41 9/9/9
f 41/41/41 42/42/42 9/9/9
f 9/9/9 42/42/42 10/10/10
f 42/42/42 43/43/43 10/10/10
f 10/10/10 43/43/43 11/11/11
f 43/43/43 44/44/44 11/11/11
f 11/11/11 44/44/44 12/12/12
f 44/44/44 45/45/45 12/12/12
f 12/12/12 45/45/45 13/13/13
f 45/45/45 46/46/46 13/13/13
f 13/13/13 46/46/46 14/14/14
f 46/46/46 47/47/47 14/14/14
f 14/14/14 47/47/47 15/15/15
f 47/47/47 48/48/48 15/15/15
f 15/15/15 48/48/48 16/16/16
f 48/48/48 49/49/49 16/16/16
f 16/16/16 49/49/49 17/17/17
f 49/49/49 50/50/50 17/17/17
f 17/17/17 50/50/50 18/18/18
f 50/50/50 51/51/51 18/18/18
f 18/18/18 51/51/51 19/19/19
f 51/51/51 52/52/52 19/19/19
f 19/19/19 52/52/52 20/20/20
f 52/52/52 53/53/53 20/20/20
f 20/20/20 53/53/53 21/21/21
f 53/53/53 54/54/54 21/21/21
f 21/21/21 54/54/54 22/22/22
f 54/54/54 55/55/55 22/22/22
f 22/22/22 55/55/55 23/23/23
f 55/55/55 56/56/56 23/23/23
f 23/23/23 56/56/56 24/24/24
f 56/56/56 57/57/57 24/24/24
f 24/24/24 57/57/57 25/25/25
f 57/57/57 58/58/58 25/25/25
f 25/25/25 58/58/58 26/26/26
f 58/58/58 59/59/59 26/26/26
f 26/26/26 59/59/59 27/27/27
f 59/59/59 60/60/60 27/27/27
f 27/27/27 60/60/60 28/28/28
f 60/60/60 61/61/61 28/28/28
f 28/28/28 61/61/61 29/29/29
f 61/61/61 62/62/62 29/29/29
f 29/29/29 62/62/62 30/30/30
f 62/62/62 63/63/63 30/30/30
f 30/30/30 63/63/63 31/31/31
f 63/63/63 64/64/64 31/31/31
f 31/31/31 64/64/64 32/32/32
f 64/64/64 65/65/65 32/32/32
f 32/32/32 65/65/65 33/33/33
f 65/65/65 66/66/66 33/33/33
f 99/99/99 100/100/100 67/67/67
f 100/100/100 101/101/101 68/68/68
f 101/101/101 102/102/102 69/69/69
f 102/102/102 103/103/103 70/70/70
f 103/103/103 104/104/104 71/71/71
f 104/104/104 105/105/105 72/72/72
f 105/105/105 106/106/106 73/73/73
f 106/106/106 107/107/107 74/74/74
f 107/107/107 108/108/108 75/75/75
f 108/108/108 109/109/109 76/76/76
f 109/109/109 110/110/110 77/77/77
f 110/110/110 111/111/111 78/78/78
f 111/111/111 112/112/112 79/79/79
f 112/112/112 113/113/113 80/80/80
f 113/113/113 114/114/114 81/81/81
f 114/114/114 115/115/115 82/82/82
f 115/115/115 116/116/116 83/83/83
f 116/116/116 117/117/117 84/84/84
f 117/117/117 118/118/118 85/85/85
f 118/118/118 119/119/119 86/86/86
f 119/119/119 120/120/120 87/87/87
f 120/120/120 121/121/121 88/88/88
f 121/121/121 122/122/122 89/89/89
f 122/122/122 123/123/123 90/90/90
f 123/123/123 124/124/124 91/91/91
f 124/124/124 125/125/125 92/92/92
f 125/125/125 126/126/126 93/93/93
f 126/126/126 127/127/127 94/94/94
f 127/127/127 128/128/128 95/95/95
f 128/128/128 129/129/129 96/96/96
f 129/129/129 130/130/130 97/97/97
f 130/130/130 131/131/131 98/98/98
f 165/165/165 164/164/164 132/132/132
f 166/166/166 165/165/165 133/133/133
f 167/167/167 166/166/166 134/134/134
f 168/168/168 167/167/167 135/135/135
f 169/169/169 168/168/168 136/136/136
f 170/170/170 169/169/169 137/137/137
f 171/171/171 170/170/170 138/138/138
f 172/172/172 171/171/171 139/139/139
f 173/173/173 172/172/172 140/140/140
f 174/174/174 173/173/173 141/141/141
f 175/175/175 174/174/174 142/142/142
f 176/176/176 175/175/175 143/143/143
f 177/177/177 176/176/176 144/144/144
f 178/178/178 177/177/177 145/145/145
f 179/179/179 178/178/178 146/146/146
f 180/180/180 179/179/179 147/147/147
f 181/181/181 180/180/180 148/148/148
f 182/182/182 181/181/181 149/149/149
f 183/183/183 182/182/182 150/150/150
f 184/184/184 183/183/183 151/151/151
f 185/185/185 184/184/184 152/152/152
f 186/186/186 185/185/185 153/153/153
f 187/187/187 186/186/186 154/154/154
f 188/188/188 187/187/187 155/155/155
f 189/189/189 188/188/188 156/156/156
f 190/190/190 189/189/189 157/157/157
f 191/191/191 190/190/190 158/158/158
f 192/192/192 191/191/191 159/159/159
f 193/193/193 192/192/192 160/160/160
f 194/194/194 193/193/193 161/161/161
f 195/195/195 194/194/194 162/162/162
f 196/196/196 195/195/195 163/163/163
